<svg width="23" height="16" viewBox="0 0 23 16" fill="none" xmlns="http://www.w3.org/2000/svg">
<path d="M4.67082 14.1721L1.10054 10.6018C0.351802 9.85306 -0.0501513 8.82059 0.00501863 7.76448L0.194173 3.82376C0.265106 2.24748 1.51825 0.994331 3.08666 0.915517L7.02737 0.726363C8.08348 0.679074 9.11595 1.07315 9.86468 1.82188L13.435 5.39217C14.9009 6.85811 14.9009 9.2383 13.435 10.7121L9.97502 14.1721C8.51696 15.6459 6.13677 15.6459 4.67082 14.1721ZM7.57119 6.03056C7.57119 4.77742 6.55448 3.76071 5.30134 3.76071C4.04819 3.76071 3.03149 4.77742 3.03149 6.03056C3.03149 7.28371 4.04819 8.30041 5.30134 8.30041C6.55449 8.30041 7.57119 7.28371 7.57119 6.03056Z" fill="#FFA5A8"/>
<path d="M8.91156 5.39337L12.4818 1.82309C13.2306 1.07435 14.2631 0.672397 15.3192 0.727568L19.2599 0.916722C20.8362 0.987655 22.0893 2.2408 22.1681 3.80921L22.3573 7.74992C22.4046 8.80603 22.0105 9.8385 21.2618 10.5872L17.6915 14.1575C16.2255 15.6235 13.8453 15.6235 12.3715 14.1575L8.91156 10.6976C7.43774 9.23951 7.43774 6.85932 8.91156 5.39337ZM17.0531 8.29374C18.3062 8.29374 19.3229 7.27703 19.3229 6.02389C19.3229 4.77074 18.3062 3.75404 17.0531 3.75404C15.7999 3.75404 14.7832 4.77074 14.7832 6.02389C14.7832 7.27703 15.7999 8.29374 17.0531 8.29374Z" fill="#E60023"/>
</svg>
